<?xml version="1.0" encoding="utf-8"?>
<!-- Generator: Adobe Illustrator 23.0.3, SVG Export Plug-In . SVG Version: 6.00 Build 0)  -->
<svg version="1.1" id="Layer_1" xmlns="http://www.w3.org/2000/svg" xmlns:xlink="http://www.w3.org/1999/xlink" x="0px" y="0px"
	 viewBox="0 0 50 50" style="enable-background:new 0 0 50 50;" xml:space="preserve">
<style type="text/css">
	.st0{fill:#2980B9;}
	.st1{fill:#037CC6;}
	.st2{fill:#9B59B6;}
	.st3{fill:#27AE60;}
	.st4{fill:#E74C3C;}
	.st5{fill:#34495E;}
	.st6{fill:#D35400;}
	.st7{fill:#E22D2D;}
	.st8{fill:#1ABC9C;}
	.st9{fill:#F39C12;}
	.st10{fill:#E67E22;}
	.st11{fill:url(#SVGID_1_);}
	.st12{fill:url(#SVGID_2_);}
	.st13{fill:url(#SVGID_3_);}
	.st14{fill:url(#SVGID_4_);}
	.st15{fill:url(#SVGID_5_);}
	.st16{fill:url(#SVGID_6_);}
	.st17{fill:url(#SVGID_7_);}
	.st18{fill:url(#SVGID_8_);}
	.st19{fill:url(#SVGID_9_);}
	.st20{fill:url(#SVGID_10_);}
	.st21{fill:url(#SVGID_11_);}
	.st22{fill:url(#SVGID_12_);}
	.st23{fill:url(#SVGID_13_);}
	.st24{fill:url(#SVGID_14_);}
	.st25{fill:url(#SVGID_15_);}
	.st26{fill:url(#SVGID_16_);}
	.st27{fill:url(#SVGID_17_);}
	.st28{fill:url(#SVGID_18_);}
	.st29{fill:url(#SVGID_19_);}
	.st30{fill:url(#SVGID_20_);}
	.st31{fill:url(#SVGID_21_);}
	.st32{fill:url(#SVGID_22_);}
	.st33{fill:url(#SVGID_23_);}
	.st34{fill:url(#SVGID_24_);}
	.st35{fill:url(#SVGID_25_);}
	.st36{fill:url(#SVGID_26_);}
	.st37{fill:url(#SVGID_27_);}
	.st38{fill:url(#SVGID_28_);}
	.st39{fill:url(#SVGID_29_);}
	.st40{fill:url(#SVGID_30_);}
	.st41{fill:url(#SVGID_31_);}
	.st42{fill:url(#SVGID_32_);}
	.st43{fill:#0C0C0C;}
	.st44{fill:none;stroke:#0C0C0C;stroke-width:2;stroke-linecap:round;stroke-linejoin:round;stroke-miterlimit:10;}
	.st45{fill:#FFFFFF;stroke:#0C0C0C;stroke-width:2;stroke-linecap:round;stroke-linejoin:round;stroke-miterlimit:10;}
	.st46{fill:#FB0101;}
	.st47{fill:url(#SVGID_33_);}
	.st48{fill:url(#SVGID_34_);}
	.st49{fill:#403D3D;}
	.st50{fill:#926DDE;}
	.st51{fill:#33CABB;}
</style>
<g>
	<linearGradient id="SVGID_1_" gradientUnits="userSpaceOnUse" x1="9.3822" y1="24.4293" x2="40.7943" y2="24.4293">
		<stop  offset="8.379889e-03" style="stop-color:#FB0101"/>
		<stop  offset="1" style="stop-color:#403D3D"/>
	</linearGradient>
	<path class="st11" d="M35.3,17.3v-1.9c0-5.6-4.6-10.2-10.2-10.2S14.9,9.9,14.9,15.5v1.9c-3.1,0.2-5.5,2.8-5.5,5.9v4.6
		c0,8.7,7,15.7,15.7,15.7s15.7-7,15.7-15.7v-4.6C40.8,20.1,38.3,17.5,35.3,17.3z M25.1,7.3c4.5,0,8.2,3.7,8.2,8.2v1.8H16.9v-1.8
		C16.9,11,20.6,7.3,25.1,7.3z M38.8,27.8c0,7.6-6.1,13.7-13.7,13.7s-13.7-6.1-13.7-13.7v-4.6c0-2.2,1.8-3.9,3.9-3.9h19.5
		c2.2,0,3.9,1.8,3.9,3.9V27.8z M26.1,27.4v5.5c0,0.6-0.4,1-1,1s-1-0.4-1-1v-5.5c0-0.6,0.4-1,1-1S26.1,26.8,26.1,27.4z"/>
</g>
</svg>
