<?xml version="1.0" encoding="utf-8"?>
<!-- Generator: Adobe Illustrator 23.0.3, SVG Export Plug-In . SVG Version: 6.00 Build 0)  -->
<svg version="1.1" id="Layer_1" xmlns="http://www.w3.org/2000/svg" xmlns:xlink="http://www.w3.org/1999/xlink" x="0px" y="0px"
	 viewBox="0 0 50 50" style="enable-background:new 0 0 50 50;" xml:space="preserve">
<style type="text/css">
	.st0{fill:#2980B9;}
	.st1{fill:#037CC6;}
	.st2{fill:#9B59B6;}
	.st3{fill:#27AE60;}
	.st4{fill:#E74C3C;}
	.st5{fill:#34495E;}
	.st6{fill:#D35400;}
	.st7{fill:#E22D2D;}
	.st8{fill:#1ABC9C;}
	.st9{fill:#F39C12;}
	.st10{fill:#E67E22;}
	.st11{fill:#0C0C0C;}
	.st12{fill:none;stroke:#0C0C0C;stroke-width:2;stroke-linecap:round;stroke-linejoin:round;stroke-miterlimit:10;}
	.st13{fill:#FFFFFF;stroke:#0C0C0C;stroke-width:2;stroke-linecap:round;stroke-linejoin:round;stroke-miterlimit:10;}
</style>
<g>
	<g>
		<path class="st2" d="M25.1,44.2c-8.7,0-15.7-7-15.7-15.7v-4.6c0-3.3,2.7-5.9,5.9-5.9h19.5c3.3,0,5.9,2.7,5.9,5.9v4.6
			C40.8,37.2,33.7,44.2,25.1,44.2z M15.3,20c-2.2,0-3.9,1.8-3.9,3.9v4.6c0,7.6,6.1,13.7,13.7,13.7s13.7-6.1,13.7-13.7v-4.6
			c0-2.2-1.8-3.9-3.9-3.9H15.3z"/>
		<path class="st2" d="M34.3,19.9c-0.6,0-1-0.4-1-1v-2.8c0-4.5-3.7-8.2-8.2-8.2s-8.2,3.7-8.2,8.2v2.8c0,0.6-0.4,1-1,1
			c-0.6,0-1-0.4-1-1v-2.8C14.9,10.6,19.5,6,25.1,6s10.2,4.6,10.2,10.2v2.8C35.3,19.5,34.8,19.9,34.3,19.9z"/>
		<path class="st2" d="M25.1,34.6c-0.6,0-1-0.4-1-1v-5.5c0-0.6,0.4-1,1-1s1,0.4,1,1v5.5C26.1,34.1,25.6,34.6,25.1,34.6z"/>
	</g>
</g>
</svg>
